<?xml version="1.0" encoding="UTF-8"?>
<!-- Generator: Adobe Illustrator 18.1.1, SVG Export Plug-In . SVG Version: 6.00 Build 0)  -->
<svg version="1.1" id="Layer_1" xmlns="http://www.w3.org/2000/svg" xmlns:xlink="http://www.w3.org/1999/xlink" x="0px" y="0px" viewBox="1179.9 359.3 1000 281.4" enable-background="new 1179.9 359.3 1000 281.4" xml:space="preserve">
<g>
	<g>
		<path fill="#FFFFFF" d="M1526.7,529.3c-28.6,11.4-65.9,23.6-90.5-1.4c-19.1-20-18.2-59.1,0-79.5c24.1-27.7,60.5-15,88.2-1.8    c2.3,1.4,5.5,0,6.4-2.7l17.7-37.3c-37.7-17.3-77.7-29.5-117.7-13.6c-40.5,16.4-62.3,53.6-62.3,96.4c0,42.3,22.7,76.8,62.3,92.3    c39.1,15,85,5,121.4-12.3l-18.2-36.8C1532.6,529.8,1529.4,528.4,1526.7,529.3z"/>
		<path fill="#FFFFFF" d="M1318.1,477.5c-23.6-13.2-47.3-11.8-70.5-21.8c-11.4-5-9.1-15,0.9-20c20-9.5,46.8-2.3,64.5,9.5    c1.4,0.9,2.7,0.9,4.1,0.9c1.4-0.5,2.7-1.4,3.2-2.3l20.5-35.5c-34.5-26.4-90-31.8-127.7-4.1c-25,18.2-32.7,48.2-18.2,70.9    c19.5,29.5,59.5,27.7,89.5,39.5c11.8,5,7.7,17.7-1.4,22.7c-22.7,12.7-56.8-0.9-78.6-12.3c-2.7-1.4-5.5,0-6.8,2.3l-17.7,35.9    c26.4,16.4,52.7,24.5,79.1,25c40,0.5,85.5-18.2,86.4-64.1C1345.3,503,1336.2,488,1318.1,477.5z"/>
		<path fill="#FFFFFF" d="M1704,398.4v136.4c-25,15.9-73.2,9.5-73.2-27.3V398.4c0-2.7-2.3-5-5-5h-47.3V508    c0,49.5,38.6,80.9,87.3,80.9c17.3,0,38.2-2.7,54.1-8.6l28.2,19.1c1.8,0.9,3.6,1.4,5.5,0.5c1.8-0.9,2.7-2.7,2.7-4.5V393.4H1709    C1706.2,393.4,1704,395.7,1704,398.4z"/>
		<path fill="#FFFFFF" d="M1882.2,385.7c-15.9,0-31.8,3.6-47.7,8.6l-27.7-18.6c-1.8-0.9-3.6-1.4-5.5-0.5c-1.8,0.9-2.7,2.7-2.7,4.5    v255.9c0,2.7,2.3,5,5,5h46.8v-55c10.5,1.8,19.5,3.2,31.4,2.7c55.9,0,101.8-45.5,101.8-101.4C1984,431.1,1938.5,385.7,1882.2,385.7    z M1874.9,542.5c-8.6,0-16.8-1.8-24.1-5.5V437c7.3-3.6,15.5-5.5,24.1-5.5c30.5,0,55.5,25,55.5,55.5    C1930.3,518,1905.3,542.5,1874.9,542.5z"/>
	</g>
	<path fill="#F37021" d="M2105.8,385.7c14.1,30.9,21.8,65,21.8,101.4c0,35.9-7.7,70.5-21.8,101.4l45.5,26.4   c18.2-38.6,28.6-81.8,28.6-127.7c0-45.5-10.5-89.1-28.6-127.7L2105.8,385.7L2105.8,385.7z M2025.3,432c6.4,17.3,10,35.5,10,55   c0,19.5-3.6,38.2-10,55l45.9,26.4c10.9-25,16.8-52.7,16.8-81.4c0-29.1-5.9-56.4-16.8-81.4L2025.3,432L2025.3,432z"/>
</g>
</svg>